<?xml version="1.0" encoding="UTF-8"?>
<!DOCTYPE svg PUBLIC "-//W3C//DTD SVG 1.1//EN" "http://www.w3.org/Graphics/SVG/1.1/DTD/svg11.dtd">
<svg xmlns="http://www.w3.org/2000/svg" version="1.1" width="512px" height="512px" style="shape-rendering:geometricPrecision; text-rendering:geometricPrecision; image-rendering:optimizeQuality; fill-rule:evenodd; clip-rule:evenodd" xmlns:xlink="http://www.w3.org/1999/xlink">
<g><path style="opacity:0.942" fill="#fdfcfc" d="M 232.5,17.5 C 250.732,15.1876 266.232,20.521 279,33.5C 306.525,20.8433 327.025,28.1766 340.5,55.5C 385.269,55.7577 412.769,77.7577 423,121.5C 426.897,141.217 424.397,160.05 415.5,178C 422.898,186.025 426.231,195.525 425.5,206.5C 450.525,211.395 463.525,226.562 464.5,252C 464.337,267.988 458.67,281.655 447.5,293C 443.012,296.743 438.346,300.243 433.5,303.5C 440.87,328.259 432.87,346.092 409.5,357C 403.593,358.624 397.593,359.791 391.5,360.5C 382.732,389.382 363.399,401.882 333.5,398C 330.488,397.22 327.655,396.053 325,394.5C 316.021,408.407 303.188,415.074 286.5,414.5C 287.01,418.884 287.843,423.218 289,427.5C 292,435.5 295,443.5 298,451.5C 302.206,465.541 298.372,476.707 286.5,485C 280.202,488.21 273.535,490.21 266.5,491C 244.863,493.794 223.196,494.128 201.5,492C 194.184,490.896 187.518,488.229 181.5,484C 175.526,478.409 173.359,471.575 175,463.5C 178.727,455.045 182.727,446.712 187,438.5C 189.736,429.238 190.402,419.904 189,410.5C 176.979,414.097 165.812,412.264 155.5,405C 150.943,400.78 146.776,396.28 143,391.5C 122.521,398.209 105.187,393.542 91,377.5C 84.9223,368.097 81.7556,357.764 81.5,346.5C 67.366,337.291 61.866,324.291 65,307.5C 65.9958,302.508 67.8291,297.841 70.5,293.5C 49.8322,270.987 44.9989,245.32 56,216.5C 60.1429,207.857 65.6429,200.191 72.5,193.5C 46.3692,165.623 39.8692,133.623 53,97.5C 67.8738,66.3092 92.3738,47.4759 126.5,41C 143.638,38.5219 160.638,39.1886 177.5,43C 182.854,44.7617 188.021,46.9284 193,49.5C 201.03,32.2857 214.197,21.6191 232.5,17.5 Z"/></g>
<g><path style="opacity:1" fill="#6b1f2e" d="M 234.5,27.5 C 252.918,26.1261 267.085,33.1261 277,48.5C 294.3,33.0244 310.634,34.0244 326,51.5C 329.874,56.9169 332.374,62.9169 333.5,69.5C 368.624,62.4812 393.457,75.4812 408,108.5C 418.627,134.107 416.127,158.273 400.5,181C 414.291,188.734 418.291,199.901 412.5,214.5C 423.954,215.483 434.287,219.316 443.5,226C 457.638,243.27 458.138,261.104 445,279.5C 437.877,287.631 429.377,293.798 419.5,298C 426.785,310.26 427.285,322.76 421,335.5C 410.388,347.284 397.221,351.618 381.5,348.5C 381.093,369.061 371.093,382.227 351.5,388C 339.532,390.454 329.366,387.288 321,378.5C 312.39,400.892 296.89,408.226 274.5,400.5C 275.202,419.308 279.702,437.308 288,454.5C 290.655,469.859 284.155,478.359 268.5,480C 249.589,482.826 230.589,483.826 211.5,483C 203.18,482.67 195.513,480.337 188.5,476C 185.64,472.319 184.807,468.152 186,463.5C 200.117,442.744 204.283,420.077 198.5,395.5C 182.215,405.279 167.715,403.279 155,389.5C 152.646,385.797 151.146,381.797 150.5,377.5C 145.239,379.421 139.906,381.254 134.5,383C 109.474,385.964 95.8069,374.964 93.5,350C 93.522,346.914 93.8553,343.914 94.5,341C 79.4938,335.829 72.9938,325.329 75,309.5C 76.9568,302.416 80.7902,296.583 86.5,292C 65.8853,277.53 57.7187,257.697 62,232.5C 66.2623,214.913 76.4289,202.08 92.5,194C 64.4159,175.808 52.9159,149.975 58,116.5C 66.5324,84.9663 86.3658,64.1329 117.5,54C 146.676,45.1419 174.009,48.9752 199.5,65.5C 203.599,45.7387 215.266,33.072 234.5,27.5 Z"/></g>
<g><path style="opacity:1" fill="#d4df38" d="M 328.5,377.5 C 341.638,377.543 350.138,371.21 354,358.5C 354.731,338.124 365.231,329.957 385.5,334C 394.551,332.118 399.551,326.618 400.5,317.5C 399.311,311.764 397.811,306.097 396,300.5C 395.088,296.548 395.755,292.881 398,289.5C 406,282.167 414,274.833 422,267.5C 428.01,259.889 427.843,252.556 421.5,245.5C 413.828,242.915 406.994,238.915 401,233.5C 398.692,229.242 397.192,224.742 396.5,220C 398.027,213.566 398.527,207.066 398,200.5C 394.38,195.211 390.38,190.211 386,185.5C 382.69,178.871 381.69,171.871 383,164.5C 387.399,154.241 389.899,143.574 390.5,132.5C 391.085,123.003 388.252,114.67 382,107.5C 366.698,89.4484 347.198,82.2817 323.5,86C 311.585,90.1069 299.585,90.4402 287.5,87C 284.228,85.3922 281.228,83.3922 278.5,81C 273.575,74.0709 267.908,67.7375 261.5,62C 250.1,55.3038 239.434,56.3038 229.5,65C 221.917,72.3467 215.417,80.5133 210,89.5C 206.547,93.1451 202.38,95.6451 197.5,97C 190.101,97.8481 182.767,97.5147 175.5,96C 165.927,92.2137 156.593,87.8803 147.5,83C 132.542,76.7536 118.876,78.7536 106.5,89C 89.0836,104.569 83.917,123.403 91,145.5C 92.7519,148.672 94.7519,151.672 97,154.5C 104.333,160.5 111,167.167 117,174.5C 124.853,188.744 122.353,200.911 109.5,211C 101.172,216.091 93.672,222.258 87,229.5C 81.7675,237.734 81.1009,246.401 85,255.5C 89.9348,263.701 95.6015,271.368 102,278.5C 105.333,284.167 105.333,289.833 102,295.5C 96.238,301.259 91.238,307.592 87,314.5C 85.8914,320.499 86.7247,326.166 89.5,331.5C 83.2894,327.923 80.2894,322.423 80.5,315C 81.4028,306.039 85.5694,298.872 93,293.5C 93.6667,292.167 93.6667,290.833 93,289.5C 69.5457,275.502 61.5457,255.169 69,228.5C 74.0908,212.699 84.5908,202.365 100.5,197.5C 101.76,195.647 101.76,193.814 100.5,192C 75.7089,179.763 63.3756,159.763 63.5,132C 64.8249,96.032 82.4916,72.032 116.5,60C 147.067,50.2513 175.067,54.918 200.5,74C 202.367,74.7112 203.867,74.2112 205,72.5C 205.585,52.4656 215.419,39.6323 234.5,34C 247.241,31.7435 258.074,35.2435 267,44.5C 269.542,48.9522 272.542,52.9522 276,56.5C 280.592,51.9101 285.759,48.0768 291.5,45C 308.432,41.0494 319.932,47.2161 326,63.5C 326.2,67.7533 326.7,71.92 327.5,76C 361.29,66.4815 386.123,77.3149 402,108.5C 408.995,124.703 410.328,141.369 406,158.5C 402.644,167.159 398.478,175.325 393.5,183C 393.833,183.833 394.167,184.667 394.5,185.5C 406.386,188.587 411.219,196.253 409,208.5C 408.108,211.952 406.442,214.952 404,217.5C 403.333,218.5 403.333,219.5 404,220.5C 418.287,218.707 430.62,222.707 441,232.5C 453.117,252.57 449.951,270.07 431.5,285C 425.537,288.565 419.37,291.732 413,294.5C 414.649,300.164 416.649,305.831 419,311.5C 421.961,327.416 415.795,337.916 400.5,343C 392.814,343.373 385.148,343.373 377.5,343C 377.608,361.139 369.608,374.139 353.5,382C 344.364,384.784 336.031,383.284 328.5,377.5 Z"/></g>
<g><path style="opacity:1" fill="#afce44" d="M 328.5,377.5 C 326.037,375.539 323.703,373.372 321.5,371C 320.167,370.333 318.833,370.333 317.5,371C 315.687,377.791 312.687,383.958 308.5,389.5C 287.506,396.011 278.673,388.345 282,366.5C 285.885,355.948 293.052,348.782 303.5,345C 306.817,344.502 310.15,344.335 313.5,344.5C 317.282,347.523 321.282,348.023 325.5,346C 320.293,344.128 316.293,340.794 313.5,336C 318.525,333.122 322.858,329.289 326.5,324.5C 326.167,324.167 325.833,323.833 325.5,323.5C 323.09,325.372 320.423,326.705 317.5,327.5C 315.533,327.739 313.699,327.406 312,326.5C 309.248,316.806 312.081,308.972 320.5,303C 325.774,299.53 331.44,296.864 337.5,295C 347.203,293.126 356.87,291.126 366.5,289C 368.66,287.668 370.66,286.168 372.5,284.5C 374.977,284.949 376.977,284.283 378.5,282.5C 376.063,281.197 373.896,279.53 372,277.5C 370.22,273.005 369.054,268.338 368.5,263.5C 366.738,264.688 365.738,266.355 365.5,268.5C 364.732,270.715 364.065,273.048 363.5,275.5C 348.655,279.605 336.155,275.938 326,264.5C 321.316,256.766 319.65,248.433 321,239.5C 329.038,238.136 332.371,233.469 331,225.5C 323.408,236.576 315.074,237.243 306,227.5C 305.51,229.545 305.677,231.545 306.5,233.5C 303.256,242.998 300.422,252.665 298,262.5C 292.743,270.214 285.576,273.047 276.5,271C 269.773,267.935 265.606,262.769 264,255.5C 263.333,250.167 263.333,244.833 264,239.5C 266.366,231.398 269.7,223.731 274,216.5C 282.933,205.564 292.6,195.231 303,185.5C 309.387,177.775 314.053,169.108 317,159.5C 317.736,156.408 317.569,153.408 316.5,150.5C 323.522,148.188 326.855,143.521 326.5,136.5C 317.35,147.422 306.35,149.922 293.5,144C 289.314,140.433 285.981,136.266 283.5,131.5C 282.87,141.409 287.37,148.076 297,151.5C 296.221,165.183 289.388,174.683 276.5,180C 252.027,190.506 231.194,185.672 214,165.5C 212.03,161.727 210.197,157.894 208.5,154C 213.697,150.152 215.197,145.318 213,139.5C 208.175,150.824 200.341,153.491 189.5,147.5C 188.177,149.854 188.843,151.521 191.5,152.5C 192.03,154.924 192.864,157.257 194,159.5C 200.816,164.632 205.649,171.132 208.5,179C 208.18,181.799 207.18,184.299 205.5,186.5C 201.555,187.491 197.555,187.824 193.5,187.5C 189.71,187.008 189.044,187.841 191.5,190C 194.561,192.035 197.895,193.201 201.5,193.5C 202.263,194.268 203.263,194.768 204.5,195C 223.459,193.291 231.292,201.791 228,220.5C 227.015,231.432 224.015,241.765 219,251.5C 217.594,254.409 215.428,256.409 212.5,257.5C 207.797,255.728 203.63,253.061 200,249.5C 196.084,244.004 192.418,238.337 189,232.5C 188.837,241.512 192.004,249.179 198.5,255.5C 195.493,258.502 191.826,260.168 187.5,260.5C 184.428,260.183 181.428,260.516 178.5,261.5C 178.624,262.107 178.957,262.44 179.5,262.5C 183.527,264.358 187.86,265.025 192.5,264.5C 194.017,264.511 195.184,265.177 196,266.5C 198.28,270.447 200.947,274.113 204,277.5C 208.516,287.134 205.516,293.134 195,295.5C 193.615,295.486 192.449,295.152 191.5,294.5C 192.435,291.887 192.602,289.221 192,286.5C 186.146,296.007 178.313,298.007 168.5,292.5C 168.297,294.39 168.963,295.89 170.5,297C 172.955,298.312 175.455,299.478 178,300.5C 180.375,317.783 173.042,327.783 156,330.5C 149.52,330.344 144.354,327.677 140.5,322.5C 143.218,317.583 143.052,312.917 140,308.5C 139.674,313.146 138.34,317.479 136,321.5C 132.394,325.052 128.227,327.719 123.5,329.5C 128.105,330.889 132.438,330.223 136.5,327.5C 140.456,331.466 145.123,334.133 150.5,335.5C 157.248,339.988 163.415,345.322 169,351.5C 174.61,358.943 176.61,367.276 175,376.5C 172.86,382.487 168.693,384.654 162.5,383C 160.308,382.074 158.308,380.907 156.5,379.5C 156.712,374.925 154.879,371.592 151,369.5C 141.124,376.125 130.291,378.625 118.5,377C 105.1,372.938 98.7664,363.938 99.5,350C 99.865,345.474 100.032,340.974 100,336.5C 96.1997,335.298 92.6997,333.631 89.5,331.5C 86.7247,326.166 85.8914,320.499 87,314.5C 91.238,307.592 96.238,301.259 102,295.5C 105.333,289.833 105.333,284.167 102,278.5C 95.6015,271.368 89.9348,263.701 85,255.5C 81.1009,246.401 81.7675,237.734 87,229.5C 93.672,222.258 101.172,216.091 109.5,211C 122.353,200.911 124.853,188.744 117,174.5C 111,167.167 104.333,160.5 97,154.5C 94.7519,151.672 92.7519,148.672 91,145.5C 83.917,123.403 89.0836,104.569 106.5,89C 118.876,78.7536 132.542,76.7536 147.5,83C 156.593,87.8803 165.927,92.2137 175.5,96C 182.767,97.5147 190.101,97.8481 197.5,97C 202.38,95.6451 206.547,93.1451 210,89.5C 215.417,80.5133 221.917,72.3467 229.5,65C 239.434,56.3038 250.1,55.3038 261.5,62C 267.908,67.7375 273.575,74.0709 278.5,81C 281.228,83.3922 284.228,85.3922 287.5,87C 299.585,90.4402 311.585,90.1069 323.5,86C 347.198,82.2817 366.698,89.4484 382,107.5C 388.252,114.67 391.085,123.003 390.5,132.5C 389.899,143.574 387.399,154.241 383,164.5C 381.69,171.871 382.69,178.871 386,185.5C 390.38,190.211 394.38,195.211 398,200.5C 398.527,207.066 398.027,213.566 396.5,220C 397.192,224.742 398.692,229.242 401,233.5C 406.994,238.915 413.828,242.915 421.5,245.5C 427.843,252.556 428.01,259.889 422,267.5C 414,274.833 406,282.167 398,289.5C 395.755,292.881 395.088,296.548 396,300.5C 397.811,306.097 399.311,311.764 400.5,317.5C 399.551,326.618 394.551,332.118 385.5,334C 365.231,329.957 354.731,338.124 354,358.5C 350.138,371.21 341.638,377.543 328.5,377.5 Z"/></g>
<g><path style="opacity:1" fill="#712a2c" d="M 146.5,61.5 C 159.247,60.5338 171.247,63.0338 182.5,69C 185.128,70.6255 187.461,72.6255 189.5,75C 179.918,71.0322 169.918,68.0322 159.5,66C 151.447,65.4336 143.447,65.4336 135.5,66C 139.266,64.4409 142.932,62.9409 146.5,61.5 Z"/></g>
<g><path style="opacity:1" fill="#7a3b2d" d="M 191.5,76.5 C 193.196,76.6854 194.529,77.5187 195.5,79C 193.055,79.9098 191.722,79.0764 191.5,76.5 Z"/></g>
<g><path style="opacity:1" fill="#6e252c" d="M 393.5,108.5 C 398.476,114.558 401.642,121.558 403,129.5C 404.959,141.268 402.959,152.268 397,162.5C 398.031,154.408 398.864,146.241 399.5,138C 399.098,127.822 397.098,117.989 393.5,108.5 Z"/></g>
<g><path style="opacity:1" fill="#70282c" d="M 71.5,122.5 C 71.8954,132.847 73.3954,143.18 76,153.5C 81.3033,163.476 88.1366,172.309 96.5,180C 90.3475,178.823 85.1809,175.656 81,170.5C 70.5138,155.939 67.3471,139.939 71.5,122.5 Z"/></g>
<g><path style="opacity:1" fill="#a9a938" d="M 316.5,150.5 C 317.569,153.408 317.736,156.408 317,159.5C 314.053,169.108 309.387,177.775 303,185.5C 292.6,195.231 282.933,205.564 274,216.5C 269.7,223.731 266.366,231.398 264,239.5C 263.333,244.833 263.333,250.167 264,255.5C 265.606,262.769 269.773,267.935 276.5,271C 285.576,273.047 292.743,270.214 298,262.5C 300.422,252.665 303.256,242.998 306.5,233.5C 309.501,235.667 312.501,237.834 315.5,240C 314.949,241.958 314.615,243.958 314.5,246C 315.593,251.517 316.426,257.017 317,262.5C 289.301,279.532 267.801,302.365 252.5,331C 251.216,331.684 250.049,331.517 249,330.5C 247.399,322.605 247.066,314.605 248,306.5C 249.667,285.5 251.333,264.5 253,243.5C 255.572,225.214 259.406,207.214 264.5,189.5C 286.347,186.316 299.347,173.983 303.5,152.5C 307.876,152.091 312.21,151.425 316.5,150.5 Z"/></g>
<g><path style="opacity:1" fill="#a7a638" d="M 191.5,152.5 C 195.168,154.721 199.168,155.721 203.5,155.5C 204.428,159.362 205.928,163.029 208,166.5C 211.626,170.927 215.126,175.427 218.5,180C 216.134,184.359 212.467,187.026 207.5,188C 202.648,188.815 197.981,188.648 193.5,187.5C 197.555,187.824 201.555,187.491 205.5,186.5C 207.18,184.299 208.18,181.799 208.5,179C 205.649,171.132 200.816,164.632 194,159.5C 192.864,157.257 192.03,154.924 191.5,152.5 Z"/></g>
<g><path style="opacity:1" fill="#6e242b" d="M 393.5,166.5 C 394.713,167.497 394.546,168.497 393,169.5C 392.53,168.423 392.697,167.423 393.5,166.5 Z"/></g>
<g><path style="opacity:1" fill="#6f2c2d" d="M 286.5,162.5 C 287.239,162.369 287.906,162.536 288.5,163C 276.851,176.664 262.517,180.998 245.5,176C 261.26,177.357 274.927,172.857 286.5,162.5 Z"/></g>
<g><path style="opacity:1" fill="#6c232c" d="M 377.5,197.5 C 360.578,211.598 344.411,210.598 329,194.5C 327.199,191.563 325.699,188.563 324.5,185.5C 324.108,182.278 324.608,179.278 326,176.5C 335.735,202.634 352.568,208.468 376.5,194C 378.362,191.771 380.362,190.104 382.5,189C 380.948,191.943 379.281,194.777 377.5,197.5 Z"/></g>
<g><path style="opacity:1" fill="#854d2e" d="M 98.5,183.5 C 99.8488,182.203 101.182,182.37 102.5,184C 101.072,184.579 99.7382,184.412 98.5,183.5 Z"/></g>
<g><path style="opacity:1" fill="#a8a838" d="M 212.5,257.5 C 215.428,256.409 217.594,254.409 219,251.5C 224.015,241.765 227.015,231.432 228,220.5C 231.292,201.791 223.459,193.291 204.5,195C 203.263,194.768 202.263,194.268 201.5,193.5C 210.536,192.898 218.036,189.232 224,182.5C 229.168,185.505 234.668,187.505 240.5,188.5C 234.666,211.837 230.833,235.503 229,259.5C 227.874,260.944 226.374,261.61 224.5,261.5C 220.085,261.071 216.085,259.738 212.5,257.5 Z"/></g>
<g><path style="opacity:1" fill="#a9a838" d="M 324.5,185.5 C 325.699,188.563 327.199,191.563 329,194.5C 344.411,210.598 360.578,211.598 377.5,197.5C 374.859,205.845 369.193,211.012 360.5,213C 346.584,215.95 335.418,211.784 327,200.5C 324.968,195.716 324.134,190.716 324.5,185.5 Z"/></g>
<g><path style="opacity:1" fill="#855727" d="M 254.5,203.5 C 248.471,212.915 244.637,223.248 243,234.5C 240.382,265.68 236.382,296.68 231,327.5C 230.411,338.172 229.745,348.838 229,359.5C 228.155,361.611 227.322,363.611 226.5,365.5C 227.544,336.389 230.044,307.389 234,278.5C 234.031,248.64 237.864,219.307 245.5,190.5C 249.833,190.5 254.167,190.5 258.5,190.5C 257.922,195.165 256.589,199.499 254.5,203.5 Z"/></g>
<g><path style="opacity:1" fill="#6b212c" d="M 132.5,261.5 C 139.421,258.002 143.088,252.336 143.5,244.5C 133.595,246.789 124.262,245.455 115.5,240.5C 112.87,238.372 110.37,236.039 108,233.5C 107.312,232.668 107.479,232.002 108.5,231.5C 119.361,239.087 131.361,241.587 144.5,239C 154.626,237.204 161.793,231.704 166,222.5C 168.247,216.022 169.747,209.355 170.5,202.5C 176.058,222.713 168.892,236.38 149,243.5C 148.446,254.826 142.946,262.326 132.5,266C 117.904,264.861 117.904,263.361 132.5,261.5 Z"/></g>
<g><path style="opacity:1" fill="#a87f52" d="M 254.5,203.5 C 251.295,217.359 248.795,231.359 247,245.5C 245.97,270.74 244.137,295.907 241.5,321C 241.43,326.316 242.263,331.483 244,336.5C 245.509,338.919 247.675,339.919 250.5,339.5C 253.893,339.938 256.893,339.105 259.5,337C 270.752,325.086 281.252,312.586 291,299.5C 297.901,291.928 305.401,285.095 313.5,279C 317.635,276.597 321.968,274.763 326.5,273.5C 272.189,314.504 254.689,368.504 274,435.5C 276.18,441.188 278.347,446.854 280.5,452.5C 276.89,461.997 269.89,467.164 259.5,468C 245.566,470.058 231.566,470.724 217.5,470C 210.187,467.719 206.854,462.719 207.5,455C 209.062,443.794 210.895,432.627 213,421.5C 215.123,401.658 210.79,383.325 200,366.5C 196.356,360.37 192.189,354.703 187.5,349.5C 182.727,343.474 178.06,337.307 173.5,331C 175.303,328.695 177.303,326.528 179.5,324.5C 191.943,339.87 204.276,355.37 216.5,371C 218.833,373 221.167,373 223.5,371C 224.609,369.124 225.609,367.291 226.5,365.5C 227.322,363.611 228.155,361.611 229,359.5C 229.745,348.838 230.411,338.172 231,327.5C 236.382,296.68 240.382,265.68 243,234.5C 244.637,223.248 248.471,212.915 254.5,203.5 Z"/></g>
<g><path style="opacity:1" fill="#a8a538" d="M 115.5,240.5 C 124.262,245.455 133.595,246.789 143.5,244.5C 143.088,252.336 139.421,258.002 132.5,261.5C 133.435,258.887 133.602,256.221 133,253.5C 129.41,250.954 125.577,248.787 121.5,247C 118.706,245.465 116.706,243.298 115.5,240.5 Z"/></g>
<g><path style="opacity:1" fill="#712a2c" d="M 439.5,247.5 C 443.878,260.266 440.378,270.6 429,278.5C 432.215,273.536 435.215,268.203 438,262.5C 439.25,257.58 439.75,252.58 439.5,247.5 Z"/></g>
<g><path style="opacity:1" fill="#a9a938" d="M 191.5,294.5 C 192.449,295.152 193.615,295.486 195,295.5C 205.516,293.134 208.516,287.134 204,277.5C 200.947,274.113 198.28,270.447 196,266.5C 195.184,265.177 194.017,264.511 192.5,264.5C 196.233,262.797 199.9,260.797 203.5,258.5C 211.205,263.18 219.538,265.846 228.5,266.5C 226.746,294.196 224.58,321.863 222,349.5C 221.962,353.563 221.128,357.397 219.5,361C 216.564,360.107 214.064,358.274 212,355.5C 207.043,348.874 201.709,342.54 196,336.5C 190.757,330.352 186.257,323.685 182.5,316.5C 184.559,311.254 184.892,305.921 183.5,300.5C 186.422,298.92 189.089,296.92 191.5,294.5 Z"/></g>
<g><path style="opacity:1" fill="#92833a" d="M 187.5,260.5 C 184.833,261.167 182.167,261.833 179.5,262.5C 178.957,262.44 178.624,262.107 178.5,261.5C 181.428,260.516 184.428,260.183 187.5,260.5 Z"/></g>
<g><path style="opacity:1" fill="#855726" d="M 326.5,273.5 C 321.968,274.763 317.635,276.597 313.5,279C 305.401,285.095 297.901,291.928 291,299.5C 281.252,312.586 270.752,325.086 259.5,337C 256.893,339.105 253.893,339.938 250.5,339.5C 253.438,337.066 256.271,334.399 259,331.5C 268.513,313.319 281.013,297.485 296.5,284C 304.388,277.779 312.555,271.945 321,266.5C 322.666,268.996 324.5,271.329 326.5,273.5 Z"/></g>
<g><path style="opacity:1" fill="#896b37" d="M 365.5,268.5 C 366.01,271.388 365.344,273.721 363.5,275.5C 364.065,273.048 364.732,270.715 365.5,268.5 Z"/></g>
<g><path style="opacity:1" fill="#a9a838" d="M 372.5,284.5 C 370.66,286.168 368.66,287.668 366.5,289C 356.87,291.126 347.203,293.126 337.5,295C 331.44,296.864 325.774,299.53 320.5,303C 312.081,308.972 309.248,316.806 312,326.5C 313.699,327.406 315.533,327.739 317.5,327.5C 308.679,332.491 299.679,332.658 290.5,328C 289.707,326.915 289.04,325.748 288.5,324.5C 299.019,304.98 313.685,289.314 332.5,277.5C 343.221,282.953 354.388,283.953 366,280.5C 368.565,281.24 370.731,282.574 372.5,284.5 Z"/></g>
<g><path style="opacity:1" fill="#7a3a2d" d="M 424.5,279.5 C 426.549,279.706 426.883,280.539 425.5,282C 420.517,282.831 420.183,281.998 424.5,279.5 Z"/></g>
<g><path style="opacity:1" fill="#a8a838" d="M 313.5,344.5 C 310.15,344.335 306.817,344.502 303.5,345C 293.052,348.782 285.885,355.948 282,366.5C 278.673,388.345 287.506,396.011 308.5,389.5C 299.208,399.11 288.541,400.944 276.5,395C 274.959,393.421 273.792,391.587 273,389.5C 272.002,368.824 276.002,349.157 285,330.5C 291.383,335.078 298.383,336.745 306,335.5C 308.311,338.645 310.811,341.645 313.5,344.5 Z"/></g>
<g><path style="opacity:1" fill="#a9a838" d="M 156.5,379.5 C 158.308,380.907 160.308,382.074 162.5,383C 168.693,384.654 172.86,382.487 175,376.5C 176.61,367.276 174.61,358.943 169,351.5C 163.415,345.322 157.248,339.988 150.5,335.5C 156.377,336.899 162.044,336.233 167.5,333.5C 178.13,345.633 186.964,358.966 194,373.5C 196.559,378.857 197.392,384.357 196.5,390C 184.743,397.457 173.243,397.291 162,389.5C 159.381,386.594 157.547,383.261 156.5,379.5 Z"/></g>
<g><path style="opacity:1" fill="#722d2c" d="M 368.5,346.5 C 370.735,347.286 371.735,348.952 371.5,351.5C 370.256,359.398 366.256,365.398 359.5,369.5C 359.167,369.333 358.833,369.167 358.5,369C 364.43,362.641 367.764,355.141 368.5,346.5 Z"/></g>
<g><path style="opacity:1" fill="#d2b786" d="M 260.5,349.5 C 261.5,349.5 262.5,349.5 263.5,349.5C 263.473,355.278 262.64,360.944 261,366.5C 260.333,374.833 260.333,383.167 261,391.5C 263.439,407.301 265.606,423.135 267.5,439C 267.721,443.713 266.888,448.213 265,452.5C 260.945,456.365 256.778,456.365 252.5,452.5C 248.678,447.852 246.178,442.519 245,436.5C 239.823,405.56 244.99,376.56 260.5,349.5 Z"/></g>
<g><path style="opacity:1" fill="#6c242c" d="M 104.5,354.5 C 107.796,360.622 112.796,364.789 119.5,367C 127.197,367.478 134.864,367.478 142.5,367C 132.663,372.56 122.663,372.893 112.5,368C 107.637,364.77 104.97,360.27 104.5,354.5 Z"/></g>
<g><path style="opacity:1" fill="#855726" d="M 187.5,349.5 C 192.189,354.703 196.356,360.37 200,366.5C 210.79,383.325 215.123,401.658 213,421.5C 210.895,432.627 209.062,443.794 207.5,455C 206.854,462.719 210.187,467.719 217.5,470C 231.566,470.724 245.566,470.058 259.5,468C 269.89,467.164 276.89,461.997 280.5,452.5C 285.544,460.322 284.21,466.822 276.5,472C 271.903,473.586 267.236,474.919 262.5,476C 242.446,478.251 222.446,477.917 202.5,475C 198.737,474.08 195.237,472.58 192,470.5C 191.5,469.5 191,468.5 190.5,467.5C 201.679,451.289 207.013,433.289 206.5,413.5C 206.353,390.227 200.019,368.893 187.5,349.5 Z"/></g>
<g><path style="opacity:1" fill="#74392f" d="M 145.5,364.5 C 148.797,364.329 149.131,364.995 146.5,366.5C 145.702,366.043 145.369,365.376 145.5,364.5 Z"/></g>
<g><path style="opacity:1" fill="#75322d" d="M 353.5,370.5 C 354.675,370.281 355.675,370.614 356.5,371.5C 354.948,372.798 353.948,372.465 353.5,370.5 Z"/></g>
</svg>
